<svg xmlns="http://www.w3.org/2000/svg" xmlns:xlink="http://www.w3.org/1999/xlink" width="500" zoomAndPan="magnify" viewBox="0 0 375 374.999991" height="500" preserveAspectRatio="xMidYMid meet" version="1.0"><path fill="#99aab5" d="M 144.933594 203.191406 C 158.679688 203.191406 206.167969 239.011719 206.140625 283.167969 C 206.167969 327.339844 83.734375 327.339844 83.726562 283.160156 C 83.734375 239.003906 131.1875 203.191406 144.933594 203.191406 Z M 144.933594 203.191406 " fill-opacity="1" fill-rule="nonzero"/><path fill="#ccd6dd" d="M 126.761719 233.375 C 199.605469 306.25 269.640625 275.9375 291.859375 253.730469 C 314.070312 231.503906 290.558594 171.980469 239.355469 120.761719 C 188.136719 69.53125 128.625 46.011719 106.414062 68.230469 C 84.203125 90.449219 53.910156 160.503906 126.761719 233.375 Z M 126.761719 233.375 " fill-opacity="1" fill-rule="nonzero"/><path fill="#66757f" d="M 158.917969 201.191406 C 210.132812 252.417969 269.632812 275.929688 291.851562 253.71875 C 314.0625 231.496094 290.550781 171.972656 239.347656 120.753906 C 188.136719 69.53125 128.625 46.011719 106.414062 68.230469 C 84.203125 90.449219 107.714844 149.976562 158.917969 201.191406 Z M 158.917969 201.191406 " fill-opacity="1" fill-rule="nonzero"/><path fill="#ccd6dd" d="M 239.347656 120.753906 C 242.996094 124.414062 242.996094 130.339844 239.347656 134 L 179.738281 193.613281 C 176.078125 197.273438 170.152344 197.273438 166.492188 193.613281 C 162.835938 189.960938 162.835938 184.027344 166.492188 180.367188 L 226.09375 120.753906 C 229.761719 117.09375 235.679688 117.09375 239.347656 120.753906 Z M 239.347656 120.753906 " fill-opacity="1" fill-rule="nonzero"/><path fill="#ccd6dd" d="M 252.589844 107.511719 C 259.898438 114.824219 259.898438 126.695312 252.589844 134.007812 C 245.273438 141.328125 233.414062 141.328125 226.09375 134.007812 C 218.785156 126.695312 218.785156 114.824219 226.09375 107.511719 C 233.40625 100.183594 245.273438 100.183594 252.589844 107.511719 Z M 252.589844 107.511719 " fill-opacity="1" fill-rule="nonzero"/><path fill="#ffac33" d="M 289.496094 133.589844 L 289.074219 133.582031 C 284.523438 133.359375 281.03125 129.484375 281.253906 124.941406 C 281.261719 124.808594 281.773438 107.160156 268.230469 93.613281 C 254.734375 80.117188 237.144531 80.597656 236.90625 80.589844 C 232.375 80.859375 228.492188 77.308594 228.261719 72.773438 C 228.039062 68.222656 231.535156 64.347656 236.082031 64.125 C 237.089844 64.027344 261.039062 63.109375 279.875 81.957031 C 298.726562 100.820312 297.761719 124.75 297.710938 125.765625 C 297.496094 130.160156 293.855469 133.589844 289.496094 133.589844 Z M 289.496094 133.589844 " fill-opacity="1" fill-rule="nonzero"/><path fill="#ffac33" d="M 318.824219 129.003906 C 317.925781 129.003906 317.003906 128.847656 316.105469 128.535156 C 311.8125 127.027344 309.546875 122.328125 311.054688 118.03125 C 311.332031 117.148438 318.414062 94.324219 292.964844 68.875 C 267.203125 43.09375 242.476562 48.972656 241.441406 49.234375 C 237.078125 50.367188 232.5625 47.71875 231.417969 43.34375 C 230.265625 38.964844 232.835938 34.488281 237.195312 33.308594 C 238.597656 32.929688 271.851562 24.429688 304.617188 57.226562 C 337.714844 90.316406 327.082031 122.15625 326.605469 123.5 C 325.417969 126.878906 322.230469 129.003906 318.824219 129.003906 Z M 318.824219 129.003906 " fill-opacity="1" fill-rule="nonzero"/><path fill="#66757f" d="M 146.320312 293.878906 C 122.417969 293.878906 100.636719 288.453125 83.964844 279.558594 C 83.898438 280.761719 83.726562 281.949219 83.726562 283.167969 C 83.734375 327.347656 206.167969 327.347656 206.140625 283.175781 C 206.140625 282.433594 206.019531 281.71875 205.992188 280.984375 C 189.699219 289.03125 168.941406 293.878906 146.320312 293.878906 Z M 146.320312 293.878906 " fill-opacity="1" fill-rule="nonzero"/></svg>